<mxfile host="app.diagrams.net" modified="2021-09-14T11:50:41.815Z" agent="5.0 (Windows NT 10.0; WOW64) AppleWebKit/537.36 (KHTML, like Gecko) Chrome/93.0.4577.63 Safari/537.36" etag="HNmW7_ds8hNJul1VzQdJ" version="15.1.4" type="github">
  <diagram id="cIMdUBIvNnfk27vBt--j" name="Page-1">
    <mxGraphModel dx="2370" dy="1287" grid="1" gridSize="10" guides="1" tooltips="1" connect="1" arrows="1" fold="1" page="1" pageScale="1" pageWidth="850" pageHeight="1100" math="0" shadow="0">
      <root>
        <mxCell id="0" />
        <mxCell id="1" parent="0" />
        <mxCell id="6Gv37kk4-F7z2TxaG8ak-1" value="2.6 Ah" style="rounded=0;whiteSpace=wrap;html=1;fillColor=#f8cecc;strokeColor=#b85450;" vertex="1" parent="1">
          <mxGeometry x="60" y="410" width="150" height="230" as="geometry" />
        </mxCell>
        <mxCell id="6Gv37kk4-F7z2TxaG8ak-39" style="edgeStyle=orthogonalEdgeStyle;rounded=0;orthogonalLoop=1;jettySize=auto;html=1;exitX=1;exitY=0.5;exitDx=0;exitDy=0;entryX=0;entryY=0.5;entryDx=0;entryDy=0;endArrow=none;endFill=0;" edge="1" parent="1" source="6Gv37kk4-F7z2TxaG8ak-2" target="6Gv37kk4-F7z2TxaG8ak-38">
          <mxGeometry relative="1" as="geometry" />
        </mxCell>
        <mxCell id="6Gv37kk4-F7z2TxaG8ak-2" value="V" style="text;html=1;strokeColor=none;fillColor=none;align=center;verticalAlign=middle;whiteSpace=wrap;rounded=0;" vertex="1" parent="1">
          <mxGeometry x="170" y="420" width="40" height="20" as="geometry" />
        </mxCell>
        <mxCell id="6Gv37kk4-F7z2TxaG8ak-3" value="T" style="text;html=1;strokeColor=none;fillColor=none;align=center;verticalAlign=middle;whiteSpace=wrap;rounded=0;" vertex="1" parent="1">
          <mxGeometry x="160" y="510" width="40" height="20" as="geometry" />
        </mxCell>
        <mxCell id="6Gv37kk4-F7z2TxaG8ak-4" value="+" style="text;html=1;strokeColor=none;fillColor=none;align=center;verticalAlign=middle;whiteSpace=wrap;rounded=0;" vertex="1" parent="1">
          <mxGeometry x="110" y="410" width="40" height="20" as="geometry" />
        </mxCell>
        <mxCell id="6Gv37kk4-F7z2TxaG8ak-20" style="edgeStyle=orthogonalEdgeStyle;rounded=0;orthogonalLoop=1;jettySize=auto;html=1;exitX=0.5;exitY=1;exitDx=0;exitDy=0;entryX=1;entryY=0.5;entryDx=0;entryDy=0;" edge="1" parent="1" source="6Gv37kk4-F7z2TxaG8ak-5" target="6Gv37kk4-F7z2TxaG8ak-19">
          <mxGeometry relative="1" as="geometry" />
        </mxCell>
        <mxCell id="6Gv37kk4-F7z2TxaG8ak-5" value="-" style="text;html=1;strokeColor=none;fillColor=none;align=center;verticalAlign=middle;whiteSpace=wrap;rounded=0;" vertex="1" parent="1">
          <mxGeometry x="110" y="620" width="40" height="20" as="geometry" />
        </mxCell>
        <mxCell id="6Gv37kk4-F7z2TxaG8ak-41" style="edgeStyle=orthogonalEdgeStyle;rounded=0;orthogonalLoop=1;jettySize=auto;html=1;exitX=0;exitY=0.5;exitDx=0;exitDy=0;endArrow=none;endFill=0;entryX=1;entryY=0.5;entryDx=0;entryDy=0;" edge="1" parent="1" source="6Gv37kk4-F7z2TxaG8ak-6" target="6Gv37kk4-F7z2TxaG8ak-3">
          <mxGeometry relative="1" as="geometry">
            <mxPoint x="490" y="540" as="targetPoint" />
          </mxGeometry>
        </mxCell>
        <mxCell id="6Gv37kk4-F7z2TxaG8ak-6" value="BMS" style="rounded=0;whiteSpace=wrap;html=1;fillColor=#d5e8d4;strokeColor=#82b366;" vertex="1" parent="1">
          <mxGeometry x="880" y="320" width="310" height="400" as="geometry" />
        </mxCell>
        <mxCell id="6Gv37kk4-F7z2TxaG8ak-7" value="12V" style="rounded=1;whiteSpace=wrap;html=1;" vertex="1" parent="1">
          <mxGeometry x="890" y="330" width="120" height="60" as="geometry" />
        </mxCell>
        <mxCell id="6Gv37kk4-F7z2TxaG8ak-8" value="GPIO" style="rounded=1;whiteSpace=wrap;html=1;" vertex="1" parent="1">
          <mxGeometry x="890" y="420" width="120" height="60" as="geometry" />
        </mxCell>
        <mxCell id="6Gv37kk4-F7z2TxaG8ak-42" style="edgeStyle=orthogonalEdgeStyle;rounded=0;orthogonalLoop=1;jettySize=auto;html=1;exitX=0.5;exitY=0;exitDx=0;exitDy=0;endArrow=none;endFill=0;entryX=0.5;entryY=1;entryDx=0;entryDy=0;" edge="1" parent="1" source="6Gv37kk4-F7z2TxaG8ak-9" target="6Gv37kk4-F7z2TxaG8ak-43">
          <mxGeometry relative="1" as="geometry">
            <mxPoint x="1120.4285714285716" y="210" as="targetPoint" />
          </mxGeometry>
        </mxCell>
        <mxCell id="6Gv37kk4-F7z2TxaG8ak-9" value="CAN" style="rounded=1;whiteSpace=wrap;html=1;" vertex="1" parent="1">
          <mxGeometry x="1060" y="330" width="120" height="60" as="geometry" />
        </mxCell>
        <mxCell id="6Gv37kk4-F7z2TxaG8ak-40" style="edgeStyle=orthogonalEdgeStyle;rounded=0;orthogonalLoop=1;jettySize=auto;html=1;exitX=0;exitY=0.5;exitDx=0;exitDy=0;entryX=1;entryY=0.5;entryDx=0;entryDy=0;endArrow=none;endFill=0;jumpStyle=arc;" edge="1" parent="1" source="6Gv37kk4-F7z2TxaG8ak-10" target="6Gv37kk4-F7z2TxaG8ak-38">
          <mxGeometry relative="1" as="geometry" />
        </mxCell>
        <mxCell id="6Gv37kk4-F7z2TxaG8ak-10" value="V" style="rounded=1;whiteSpace=wrap;html=1;" vertex="1" parent="1">
          <mxGeometry x="890" y="560" width="120" height="60" as="geometry" />
        </mxCell>
        <mxCell id="6Gv37kk4-F7z2TxaG8ak-18" style="edgeStyle=orthogonalEdgeStyle;rounded=0;orthogonalLoop=1;jettySize=auto;html=1;exitX=0;exitY=0.5;exitDx=0;exitDy=0;entryX=0.5;entryY=1;entryDx=0;entryDy=0;" edge="1" parent="1" source="6Gv37kk4-F7z2TxaG8ak-11" target="6Gv37kk4-F7z2TxaG8ak-19">
          <mxGeometry relative="1" as="geometry">
            <mxPoint x="160" y="310" as="targetPoint" />
          </mxGeometry>
        </mxCell>
        <mxCell id="6Gv37kk4-F7z2TxaG8ak-11" value="I" style="rounded=1;whiteSpace=wrap;html=1;" vertex="1" parent="1">
          <mxGeometry x="890" y="630" width="120" height="60" as="geometry" />
        </mxCell>
        <mxCell id="6Gv37kk4-F7z2TxaG8ak-12" value="T" style="rounded=1;whiteSpace=wrap;html=1;" vertex="1" parent="1">
          <mxGeometry x="890" y="490" width="120" height="60" as="geometry" />
        </mxCell>
        <mxCell id="6Gv37kk4-F7z2TxaG8ak-14" style="edgeStyle=orthogonalEdgeStyle;rounded=0;orthogonalLoop=1;jettySize=auto;html=1;exitX=0.5;exitY=1;exitDx=0;exitDy=0;" edge="1" parent="1" source="6Gv37kk4-F7z2TxaG8ak-13" target="6Gv37kk4-F7z2TxaG8ak-7">
          <mxGeometry relative="1" as="geometry" />
        </mxCell>
        <mxCell id="6Gv37kk4-F7z2TxaG8ak-13" value="12 V POWER SUPPLY" style="rounded=1;whiteSpace=wrap;html=1;fillColor=#fff2cc;strokeColor=#d6b656;" vertex="1" parent="1">
          <mxGeometry x="880" y="150" width="120" height="60" as="geometry" />
        </mxCell>
        <mxCell id="6Gv37kk4-F7z2TxaG8ak-22" style="edgeStyle=orthogonalEdgeStyle;rounded=0;orthogonalLoop=1;jettySize=auto;html=1;exitX=0;exitY=0.5;exitDx=0;exitDy=0;entryX=0;entryY=0.845;entryDx=0;entryDy=0;entryPerimeter=0;endArrow=none;endFill=0;" edge="1" parent="1" source="6Gv37kk4-F7z2TxaG8ak-19" target="6Gv37kk4-F7z2TxaG8ak-21">
          <mxGeometry relative="1" as="geometry" />
        </mxCell>
        <mxCell id="6Gv37kk4-F7z2TxaG8ak-19" value="SHUNT" style="rounded=1;whiteSpace=wrap;html=1;rotation=-90;" vertex="1" parent="1">
          <mxGeometry x="70" y="700" width="120" height="60" as="geometry" />
        </mxCell>
        <mxCell id="6Gv37kk4-F7z2TxaG8ak-21" value="" style="pointerEvents=1;verticalLabelPosition=bottom;shadow=0;dashed=0;align=center;html=1;verticalAlign=top;shape=mxgraph.electrical.electro-mechanical.switch_disconnector;" vertex="1" parent="1">
          <mxGeometry x="170" y="850" width="75" height="19" as="geometry" />
        </mxCell>
        <mxCell id="6Gv37kk4-F7z2TxaG8ak-23" value="A" style="verticalLabelPosition=middle;shadow=0;dashed=0;align=center;html=1;verticalAlign=middle;strokeWidth=1;shape=ellipse;aspect=fixed;fontSize=50;" vertex="1" parent="1">
          <mxGeometry x="80" y="685" width="90" height="90" as="geometry" />
        </mxCell>
        <mxCell id="6Gv37kk4-F7z2TxaG8ak-25" style="edgeStyle=orthogonalEdgeStyle;rounded=0;orthogonalLoop=1;jettySize=auto;html=1;exitX=0;exitY=0.5;exitDx=0;exitDy=0;exitPerimeter=0;entryX=1;entryY=0.845;entryDx=0;entryDy=0;entryPerimeter=0;endArrow=none;endFill=0;" edge="1" parent="1" source="6Gv37kk4-F7z2TxaG8ak-24" target="6Gv37kk4-F7z2TxaG8ak-21">
          <mxGeometry relative="1" as="geometry" />
        </mxCell>
        <mxCell id="6Gv37kk4-F7z2TxaG8ak-24" value="" style="pointerEvents=1;verticalLabelPosition=bottom;shadow=0;dashed=0;align=center;html=1;verticalAlign=top;shape=mxgraph.electrical.miscellaneous.fuse_4;" vertex="1" parent="1">
          <mxGeometry x="310" y="850" width="100" height="32" as="geometry" />
        </mxCell>
        <mxCell id="6Gv37kk4-F7z2TxaG8ak-28" style="edgeStyle=orthogonalEdgeStyle;rounded=0;orthogonalLoop=1;jettySize=auto;html=1;exitX=0;exitY=0.845;exitDx=0;exitDy=0;exitPerimeter=0;entryX=0.5;entryY=0;entryDx=0;entryDy=0;endArrow=none;endFill=0;" edge="1" parent="1" source="6Gv37kk4-F7z2TxaG8ak-26" target="6Gv37kk4-F7z2TxaG8ak-4">
          <mxGeometry relative="1" as="geometry" />
        </mxCell>
        <mxCell id="6Gv37kk4-F7z2TxaG8ak-33" style="edgeStyle=orthogonalEdgeStyle;rounded=0;orthogonalLoop=1;jettySize=auto;html=1;exitX=1;exitY=0.845;exitDx=0;exitDy=0;exitPerimeter=0;endArrow=none;endFill=0;" edge="1" parent="1" source="6Gv37kk4-F7z2TxaG8ak-26">
          <mxGeometry relative="1" as="geometry">
            <mxPoint x="530" y="310" as="targetPoint" />
          </mxGeometry>
        </mxCell>
        <mxCell id="6Gv37kk4-F7z2TxaG8ak-26" value="" style="pointerEvents=1;verticalLabelPosition=bottom;shadow=0;dashed=0;align=center;html=1;verticalAlign=top;shape=mxgraph.electrical.electro-mechanical.switch_disconnector;" vertex="1" parent="1">
          <mxGeometry x="388" y="190" width="75" height="19" as="geometry" />
        </mxCell>
        <mxCell id="6Gv37kk4-F7z2TxaG8ak-30" style="edgeStyle=orthogonalEdgeStyle;rounded=0;orthogonalLoop=1;jettySize=auto;html=1;exitX=0;exitY=0.845;exitDx=0;exitDy=0;exitPerimeter=0;endArrow=none;endFill=0;" edge="1" parent="1" source="6Gv37kk4-F7z2TxaG8ak-29">
          <mxGeometry relative="1" as="geometry">
            <mxPoint x="140" y="306" as="targetPoint" />
          </mxGeometry>
        </mxCell>
        <mxCell id="6Gv37kk4-F7z2TxaG8ak-29" value="" style="pointerEvents=1;verticalLabelPosition=bottom;shadow=0;dashed=0;align=center;html=1;verticalAlign=top;shape=mxgraph.electrical.electro-mechanical.switch_disconnector;" vertex="1" parent="1">
          <mxGeometry x="280" y="290" width="75" height="19" as="geometry" />
        </mxCell>
        <mxCell id="6Gv37kk4-F7z2TxaG8ak-32" style="edgeStyle=orthogonalEdgeStyle;rounded=0;orthogonalLoop=1;jettySize=auto;html=1;exitX=0;exitY=0.5;exitDx=0;exitDy=0;exitPerimeter=0;entryX=1;entryY=0.845;entryDx=0;entryDy=0;entryPerimeter=0;endArrow=none;endFill=0;" edge="1" parent="1" source="6Gv37kk4-F7z2TxaG8ak-31" target="6Gv37kk4-F7z2TxaG8ak-29">
          <mxGeometry relative="1" as="geometry" />
        </mxCell>
        <mxCell id="6Gv37kk4-F7z2TxaG8ak-34" style="edgeStyle=orthogonalEdgeStyle;rounded=0;orthogonalLoop=1;jettySize=auto;html=1;exitX=1;exitY=0.5;exitDx=0;exitDy=0;exitPerimeter=0;endArrow=none;endFill=0;" edge="1" parent="1" source="6Gv37kk4-F7z2TxaG8ak-31">
          <mxGeometry relative="1" as="geometry">
            <mxPoint x="530" y="310" as="targetPoint" />
          </mxGeometry>
        </mxCell>
        <mxCell id="6Gv37kk4-F7z2TxaG8ak-31" value="" style="pointerEvents=1;verticalLabelPosition=bottom;shadow=0;dashed=0;align=center;html=1;verticalAlign=top;shape=mxgraph.electrical.resistors.resistor_2;" vertex="1" parent="1">
          <mxGeometry x="400" y="300" width="100" height="20" as="geometry" />
        </mxCell>
        <mxCell id="6Gv37kk4-F7z2TxaG8ak-36" style="edgeStyle=orthogonalEdgeStyle;rounded=0;orthogonalLoop=1;jettySize=auto;html=1;exitX=0.5;exitY=0;exitDx=0;exitDy=0;endArrow=none;endFill=0;" edge="1" parent="1" source="6Gv37kk4-F7z2TxaG8ak-35">
          <mxGeometry relative="1" as="geometry">
            <mxPoint x="530" y="250" as="targetPoint" />
          </mxGeometry>
        </mxCell>
        <mxCell id="6Gv37kk4-F7z2TxaG8ak-37" style="edgeStyle=orthogonalEdgeStyle;rounded=0;orthogonalLoop=1;jettySize=auto;html=1;exitX=0.5;exitY=1;exitDx=0;exitDy=0;entryX=1;entryY=0.5;entryDx=0;entryDy=0;entryPerimeter=0;endArrow=none;endFill=0;" edge="1" parent="1" source="6Gv37kk4-F7z2TxaG8ak-35" target="6Gv37kk4-F7z2TxaG8ak-24">
          <mxGeometry relative="1" as="geometry" />
        </mxCell>
        <mxCell id="6Gv37kk4-F7z2TxaG8ak-35" value="" style="rounded=1;whiteSpace=wrap;html=1;fillColor=#fff2cc;strokeColor=#d6b656;" vertex="1" parent="1">
          <mxGeometry x="1275" y="330" width="205" height="390" as="geometry" />
        </mxCell>
        <mxCell id="6Gv37kk4-F7z2TxaG8ak-38" value="" style="rounded=1;whiteSpace=wrap;html=1;fillColor=#d80073;strokeColor=#A50040;fontColor=#ffffff;" vertex="1" parent="1">
          <mxGeometry x="425" y="355" width="55" height="150" as="geometry" />
        </mxCell>
        <mxCell id="6Gv37kk4-F7z2TxaG8ak-43" value="DSUB" style="rounded=1;whiteSpace=wrap;html=1;" vertex="1" parent="1">
          <mxGeometry x="1060" y="140" width="120" height="60" as="geometry" />
        </mxCell>
        <mxCell id="6Gv37kk4-F7z2TxaG8ak-51" style="edgeStyle=orthogonalEdgeStyle;rounded=0;orthogonalLoop=1;jettySize=auto;html=1;exitX=1;exitY=0.5;exitDx=0;exitDy=0;exitPerimeter=0;entryX=0;entryY=0.5;entryDx=0;entryDy=0;entryPerimeter=0;endArrow=none;endFill=0;" edge="1" parent="1" source="6Gv37kk4-F7z2TxaG8ak-46" target="6Gv37kk4-F7z2TxaG8ak-50">
          <mxGeometry relative="1" as="geometry" />
        </mxCell>
        <mxCell id="6Gv37kk4-F7z2TxaG8ak-46" value="" style="pointerEvents=1;verticalLabelPosition=bottom;shadow=0;dashed=0;align=center;html=1;verticalAlign=top;shape=mxgraph.electrical.resistors.resistor_2;direction=south;" vertex="1" parent="1">
          <mxGeometry x="1370" y="340" width="20" height="100" as="geometry" />
        </mxCell>
        <mxCell id="6Gv37kk4-F7z2TxaG8ak-53" style="edgeStyle=orthogonalEdgeStyle;rounded=0;orthogonalLoop=1;jettySize=auto;html=1;exitX=1;exitY=0.5;exitDx=0;exitDy=0;exitPerimeter=0;entryX=0;entryY=0.5;entryDx=0;entryDy=0;entryPerimeter=0;endArrow=none;endFill=0;" edge="1" parent="1" source="6Gv37kk4-F7z2TxaG8ak-50" target="6Gv37kk4-F7z2TxaG8ak-52">
          <mxGeometry relative="1" as="geometry" />
        </mxCell>
        <mxCell id="6Gv37kk4-F7z2TxaG8ak-50" value="" style="pointerEvents=1;verticalLabelPosition=bottom;shadow=0;dashed=0;align=center;html=1;verticalAlign=top;shape=mxgraph.electrical.resistors.resistor_2;direction=south;" vertex="1" parent="1">
          <mxGeometry x="1367.5" y="470" width="20" height="100" as="geometry" />
        </mxCell>
        <mxCell id="6Gv37kk4-F7z2TxaG8ak-54" style="edgeStyle=orthogonalEdgeStyle;rounded=0;orthogonalLoop=1;jettySize=auto;html=1;exitX=1;exitY=0.5;exitDx=0;exitDy=0;exitPerimeter=0;endArrow=none;endFill=0;" edge="1" parent="1" source="6Gv37kk4-F7z2TxaG8ak-52">
          <mxGeometry relative="1" as="geometry">
            <mxPoint x="1377.571428571429" y="740" as="targetPoint" />
          </mxGeometry>
        </mxCell>
        <mxCell id="6Gv37kk4-F7z2TxaG8ak-52" value="" style="pointerEvents=1;verticalLabelPosition=bottom;shadow=0;dashed=0;align=center;html=1;verticalAlign=top;shape=mxgraph.electrical.resistors.resistor_2;direction=south;" vertex="1" parent="1">
          <mxGeometry x="1367.5" y="590" width="20" height="100" as="geometry" />
        </mxCell>
      </root>
    </mxGraphModel>
  </diagram>
</mxfile>
